<svg id="Logo" xmlns="http://www.w3.org/2000/svg" viewBox="0 0 184.04 38.56"><defs><style>.cls-1,.cls-5{fill:#454545;}.cls-1,.cls-2,.cls-3,.cls-6{fill-rule:evenodd;}.cls-2{fill:#e55425;}.cls-3{fill:#e96424;}.cls-4{fill:#eb7534;}.cls-6,.cls-7{fill:#fff;}</style></defs><title>nirvana-logo-with-orange</title><g id="Logo-2" data-name="Logo"><polygon class="cls-1" points="21.43 25.82 21.43 27.78 18.86 27.78 18.86 25.82 12.86 25.82 12.86 27.78 10.29 27.78 10.29 25.82 4.29 25.82 4.29 31.82 10.29 31.82 10.29 29.86 12.86 29.86 12.86 38.56 18.86 38.56 18.86 29.86 21.43 29.86 21.43 31.82 27.43 31.82 27.43 25.82 21.43 25.82"/><polygon class="cls-2" points="25.71 17.25 25.71 19.21 23.14 19.21 23.14 17.25 17.14 17.25 17.14 19.21 14.57 19.21 14.57 17.25 8.57 17.25 8.57 19.21 6 19.21 6 17.25 0 17.25 0 23.25 6 23.25 6 21.29 8.57 21.29 8.57 23.25 14.57 23.25 14.57 21.29 17.14 21.29 17.14 23.25 23.14 23.25 23.14 21.29 25.71 21.29 25.71 23.25 31.71 23.25 31.71 17.25 25.71 17.25"/><polygon class="cls-3" points="21.43 8.68 21.43 10.64 18.86 10.64 18.86 8.68 12.86 8.68 12.86 10.64 10.29 10.64 10.29 8.68 4.29 8.68 4.29 14.68 10.29 14.68 10.29 12.71 12.86 12.71 12.86 14.68 18.86 14.68 18.86 12.71 21.43 12.71 21.43 14.68 27.43 14.68 27.43 8.68 21.43 8.68"/><rect class="cls-4" x="12.86" y="0.1" width="6" height="6"/><path class="cls-5" d="M115.73,61.9V74.67c0,.64,0,1.39.1,2.22s.17,1.79.31,2.86c-.52-1.13-1-2.1-1.42-2.92a17.29,17.29,0,0,0-.93-1.63L104,61.9h-6.8V87.75H104V75c0-.64,0-1.38-.1-2.22s-.17-1.79-.31-2.88c.51,1.11,1,2.07,1.41,2.89A14.77,14.77,0,0,0,106,74.4l9.76,13.35h6.77V61.9Z" transform="translate(-57.98 -55.67)"/><path class="cls-5" d="M130.92,67.87a3.35,3.35,0,0,0,2.46-1,3.42,3.42,0,0,0,1-2.49,3.35,3.35,0,0,0-1-2.46,3.54,3.54,0,0,0-4.93,0,3.32,3.32,0,0,0-1,2.44,3.42,3.42,0,0,0,1,2.47A3.32,3.32,0,0,0,130.92,67.87Zm-3.14,19.88h6.3V69.92h-6.3Z" transform="translate(-57.98 -55.67)"/><path class="cls-5" d="M152,69.56q-.37,0-.75,0a6.38,6.38,0,0,0-3.85,1.15,7.51,7.51,0,0,0-2.5,3.44v-4.2h-5.93V87.75h6.24V80.37a5.79,5.79,0,0,1,1.25-4A4.47,4.47,0,0,1,150,75a6.6,6.6,0,0,1,1.06.09,7,7,0,0,1,1.11.29l.6-5.72A6.7,6.7,0,0,0,152,69.56Z" transform="translate(-57.98 -55.67)"/><path class="cls-5" d="M166.9,69.92l-3,7.87c0,.11-.09.27-.17.48a10.66,10.66,0,0,0-.69,2.31,13.77,13.77,0,0,0-.73-2.49c0-.12-.09-.22-.12-.3l-3-7.87H152.4l8,17.83h4.92l8.11-17.83Z" transform="translate(-57.98 -55.67)"/><path class="cls-5" d="M188.74,69.92v2.93a7.18,7.18,0,0,0-2.5-2.64,6.74,6.74,0,0,0-3.47-.86,7.57,7.57,0,0,0-6,2.57,10.18,10.18,0,0,0-2.23,6.93,10.67,10.67,0,0,0,2.13,7,7,7,0,0,0,5.7,2.61,7.28,7.28,0,0,0,3.63-.87,8.15,8.15,0,0,0,2.78-2.72v2.9h5.78V69.92Zm-.83,12.18a4.43,4.43,0,0,1-6.06,0,4.65,4.65,0,0,1-1.11-3.28,4.74,4.74,0,0,1,1.1-3.31,4.41,4.41,0,0,1,6.07,0A4.75,4.75,0,0,1,189,78.82,4.65,4.65,0,0,1,187.91,82.1Z" transform="translate(-57.98 -55.67)"/><path class="cls-5" d="M218.17,73.7a5.53,5.53,0,0,0-1-2.19,5.37,5.37,0,0,0-2.2-1.6,8,8,0,0,0-3.08-.56,7.36,7.36,0,0,0-3.93,1,8.7,8.7,0,0,0-2.9,3.18V69.92h-5.76V87.75h6.18V80.26a9.22,9.22,0,0,1,.9-4.69,3.12,3.12,0,0,1,2.86-1.45,2.57,2.57,0,0,1,2.24,1,5.45,5.45,0,0,1,.7,3.11v9.55h6.3V77.54A18.25,18.25,0,0,0,218.17,73.7Z" transform="translate(-57.98 -55.67)"/><path class="cls-5" d="M236.21,69.92v2.93a7.1,7.1,0,0,0-2.5-2.64,6.71,6.71,0,0,0-3.47-.86,7.58,7.58,0,0,0-6,2.57A10.18,10.18,0,0,0,222,78.85a10.62,10.62,0,0,0,2.14,7,7,7,0,0,0,5.7,2.61,7.28,7.28,0,0,0,3.63-.87,8.23,8.23,0,0,0,2.78-2.72v2.9H242V69.92Zm-.83,12.18a4.41,4.41,0,0,1-6,0,4.61,4.61,0,0,1-1.12-3.28,4.7,4.7,0,0,1,1.11-3.31,4.4,4.4,0,0,1,6.06,0,4.75,4.75,0,0,1,1.11,3.31A4.65,4.65,0,0,1,235.38,82.1Z" transform="translate(-57.98 -55.67)"/></g><polygon class="cls-6" points="21.43 25.71 21.43 27.68 18.86 27.68 18.86 25.71 12.86 25.71 12.86 27.68 10.29 27.68 10.29 25.71 4.29 25.71 4.29 31.71 10.29 31.71 10.29 29.75 12.86 29.75 12.86 38.46 18.86 38.46 18.86 29.75 21.43 29.75 21.43 31.71 27.43 31.71 27.43 25.71 21.43 25.71"/><polygon class="cls-2" points="25.71 17.14 25.71 19.1 23.14 19.1 23.14 17.14 17.14 17.14 17.14 19.1 14.57 19.1 14.57 17.14 8.57 17.14 8.57 19.1 6 19.1 6 17.14 0 17.14 0 23.14 6 23.14 6 21.18 8.57 21.18 8.57 23.14 14.57 23.14 14.57 21.18 17.14 21.18 17.14 23.14 23.14 23.14 23.14 21.18 25.71 21.18 25.71 23.14 31.71 23.14 31.71 17.14 25.71 17.14"/><polygon class="cls-3" points="21.43 8.57 21.43 10.53 18.86 10.53 18.86 8.57 12.86 8.57 12.86 10.53 10.29 10.53 10.29 8.57 4.29 8.57 4.29 14.57 10.29 14.57 10.29 12.61 12.86 12.61 12.86 14.57 18.86 14.57 18.86 12.61 21.43 12.61 21.43 14.57 27.43 14.57 27.43 8.57 21.43 8.57"/><rect class="cls-4" x="12.86" width="6" height="6"/><path class="cls-7" d="M115.73,61.8V74.56c0,.65,0,1.39.1,2.23s.17,1.79.31,2.86c-.52-1.13-1-2.11-1.42-2.92a17.89,17.89,0,0,0-.93-1.64L104,61.8h-6.8V87.65H104V74.88c0-.65,0-1.39-.1-2.22s-.17-1.8-.31-2.88c.51,1.11,1,2.07,1.41,2.89A15.85,15.85,0,0,0,106,74.3l9.76,13.35h6.77V61.8Z" transform="translate(-57.98 -55.67)"/><path class="cls-7" d="M130.92,67.77a3.48,3.48,0,1,0-2.45-5.95,3.32,3.32,0,0,0-1,2.43,3.39,3.39,0,0,0,1,2.47A3.29,3.29,0,0,0,130.92,67.77Zm-3.14,19.88h6.3V69.81h-6.3Z" transform="translate(-57.98 -55.67)"/><path class="cls-7" d="M152,69.45c-.25,0-.5,0-.75,0a6.45,6.45,0,0,0-3.85,1.14,7.59,7.59,0,0,0-2.5,3.45V69.81h-5.93V87.65h6.24V80.27a5.83,5.83,0,0,1,1.25-4,4.5,4.5,0,0,1,3.54-1.4A6.6,6.6,0,0,1,151,75a6.94,6.94,0,0,1,1.11.28l.6-5.72Z" transform="translate(-57.98 -55.67)"/><path class="cls-7" d="M166.9,69.81l-3,7.88c0,.1-.09.26-.17.47a10.88,10.88,0,0,0-.69,2.32,13.33,13.33,0,0,0-.73-2.49c0-.12-.09-.22-.12-.3l-3-7.88H152.4l8,17.84h4.92l8.11-17.84Z" transform="translate(-57.98 -55.67)"/><path class="cls-7" d="M188.74,69.81v2.93a7.22,7.22,0,0,0-2.5-2.63,6.64,6.64,0,0,0-3.47-.86,7.57,7.57,0,0,0-6,2.57,10.18,10.18,0,0,0-2.23,6.93,10.69,10.69,0,0,0,2.13,7,7,7,0,0,0,5.7,2.6,7.27,7.27,0,0,0,3.63-.86,8.24,8.24,0,0,0,2.78-2.72v2.9h5.78V69.81ZM187.91,82a4.43,4.43,0,0,1-6.06,0,4.66,4.66,0,0,1-1.11-3.29,4.76,4.76,0,0,1,1.1-3.31,4.4,4.4,0,0,1,6.07,0,5.45,5.45,0,0,1,0,6.59Z" transform="translate(-57.98 -55.67)"/><path class="cls-7" d="M218.17,73.59a5.53,5.53,0,0,0-1-2.19,5.44,5.44,0,0,0-2.2-1.59,7.83,7.83,0,0,0-3.08-.56,7.27,7.27,0,0,0-3.93,1,8.74,8.74,0,0,0-2.9,3.17V69.81h-5.76V87.65h6.18V80.16a9.27,9.27,0,0,1,.9-4.7A3.13,3.13,0,0,1,209.23,74a2.57,2.57,0,0,1,2.24,1,5.42,5.42,0,0,1,.7,3.1v9.56h6.3V77.44A18.29,18.29,0,0,0,218.17,73.59Z" transform="translate(-57.98 -55.67)"/><path class="cls-7" d="M236.21,69.81v2.93a7.14,7.14,0,0,0-2.5-2.63,6.62,6.62,0,0,0-3.47-.86,7.58,7.58,0,0,0-6,2.57A10.18,10.18,0,0,0,222,78.75a10.64,10.64,0,0,0,2.14,7,7,7,0,0,0,5.7,2.6,7.27,7.27,0,0,0,3.63-.86,8.33,8.33,0,0,0,2.78-2.72v2.9H242V69.81ZM235.38,82a4.41,4.41,0,0,1-6,0,4.62,4.62,0,0,1-1.12-3.29,4.72,4.72,0,0,1,1.11-3.31,4.39,4.39,0,0,1,6.06,0,5.45,5.45,0,0,1,0,6.59Z" transform="translate(-57.98 -55.67)"/></svg>