<svg id="Logo" xmlns="http://www.w3.org/2000/svg" viewBox="0 0 184.04 38.46"><defs><style>.cls-1,.cls-5{fill:#454545;}.cls-1,.cls-2,.cls-3{fill-rule:evenodd;}.cls-2{fill:#e55425;}.cls-3{fill:#e96424;}.cls-4{fill:#eb7534;}</style></defs><title>nirvana-logo</title><polygon id="ID" class="cls-1" points="4.29 31.71 10.29 31.71 10.29 29.75 12.86 29.75 12.86 38.46 18.86 38.46 18.86 29.75 21.43 29.75 21.43 31.71 27.43 31.71 27.43 25.71 21.43 25.71 21.43 27.68 18.86 27.68 18.86 25.71 12.86 25.71 12.86 27.68 10.29 27.68 10.29 25.71 4.29 25.71 4.29 31.71 4.29 31.71"/><polygon id="ID-Key" class="cls-2" points="0 17.14 6 17.14 6 19.1 8.57 19.1 8.57 17.14 14.57 17.14 14.57 19.1 17.14 19.1 17.14 17.14 23.14 17.14 23.14 19.1 25.71 19.1 25.71 17.14 31.71 17.14 31.71 23.14 25.71 23.14 25.71 21.18 23.14 21.18 23.14 23.14 17.14 23.14 17.14 21.18 14.57 21.18 14.57 23.14 8.57 23.14 8.57 21.18 6 21.18 6 23.14 0 23.14 0 17.14 0 17.14"/><polygon id="ID-2" data-name="ID" class="cls-3" points="4.29 8.57 10.29 8.57 10.29 10.53 12.86 10.53 12.86 8.57 18.86 8.57 18.86 10.53 21.43 10.53 21.43 8.57 27.43 8.57 27.43 14.57 21.43 14.57 21.43 12.61 18.86 12.61 18.86 14.57 12.86 14.57 12.86 12.61 10.29 12.61 10.29 14.57 4.29 14.57 4.29 8.57 4.29 8.57"/><rect id="ID-3" data-name="ID" class="cls-4" x="12.86" width="6" height="6"/><path id="n" class="cls-5" d="M147.23,94.88V69H154l9.76,13.29a17.89,17.89,0,0,1,.93,1.64c.43.81.9,1.79,1.42,2.92-.14-1.07-.24-2-.31-2.86s-.1-1.58-.1-2.23V69h6.77V94.88h-6.77L156,81.53A15.85,15.85,0,0,1,155,79.9c-.43-.82-.9-1.78-1.41-2.89.14,1.08.25,2,.31,2.88s.1,1.57.1,2.22V94.88Z" transform="translate(-107.98 -62.9)"/><path id="i" class="cls-5" d="M177.46,71.48a3.32,3.32,0,0,1,1-2.43A3.48,3.48,0,0,1,183.38,74a3.41,3.41,0,0,1-4.9,0A3.39,3.39,0,0,1,177.46,71.48Zm.32,23.4V77h6.3V94.88Z" transform="translate(-107.98 -62.9)"/><path id="r" class="cls-5" d="M188.92,94.88V77h5.93v4.21a7.66,7.66,0,0,1,2.5-3.45,6.45,6.45,0,0,1,3.85-1.14l.75,0,.77.08-.6,5.72A6.94,6.94,0,0,0,201,82.2a6.6,6.6,0,0,0-1.06-.09,4.47,4.47,0,0,0-3.54,1.41,5.79,5.79,0,0,0-1.25,4v7.38Z" transform="translate(-107.98 -62.9)"/><path id="v" class="cls-5" d="M210.42,94.88,202.4,77h6.71l3,7.88c0,.08.08.18.12.3a13.33,13.33,0,0,1,.73,2.49,10.66,10.66,0,0,1,.69-2.31c.08-.22.14-.38.17-.48l3-7.88h6.55l-8.11,17.84Z" transform="translate(-107.98 -62.9)"/><path id="a" class="cls-5" d="M244.55,77V94.88h-5.78V92A8.24,8.24,0,0,1,236,94.7a7.27,7.27,0,0,1-3.63.86,7,7,0,0,1-5.7-2.6,10.69,10.69,0,0,1-2.13-7,10.18,10.18,0,0,1,2.23-6.93,7.57,7.57,0,0,1,6-2.57,6.74,6.74,0,0,1,3.47.86,7.18,7.18,0,0,1,2.5,2.64V77ZM239,85.94a4.71,4.71,0,0,0-1.11-3.3,4.4,4.4,0,0,0-6.07,0,4.76,4.76,0,0,0-1.1,3.31,4.66,4.66,0,0,0,1.11,3.29,4.43,4.43,0,0,0,6.06,0A4.66,4.66,0,0,0,239,85.94Z" transform="translate(-107.98 -62.9)"/><path id="n-2" data-name="n" class="cls-5" d="M249.29,94.88V77h5.76v3.62a8.74,8.74,0,0,1,2.9-3.17,7.36,7.36,0,0,1,3.93-1A8,8,0,0,1,265,77a5.44,5.44,0,0,1,2.2,1.59,5.53,5.53,0,0,1,1,2.19,18.29,18.29,0,0,1,.3,3.85V94.88h-6.3V85.32a5.42,5.42,0,0,0-.7-3.1,2.57,2.57,0,0,0-2.24-1,3.13,3.13,0,0,0-2.86,1.44,9.27,9.27,0,0,0-.9,4.7v7.49Z" transform="translate(-107.98 -62.9)"/><path id="a-2" data-name="a" class="cls-5" d="M292,77V94.88h-5.77V92a8.33,8.33,0,0,1-2.78,2.72,7.27,7.27,0,0,1-3.63.86,7,7,0,0,1-5.7-2.6A10.64,10.64,0,0,1,272,86a10.18,10.18,0,0,1,2.23-6.93,7.58,7.58,0,0,1,6-2.57,6.71,6.71,0,0,1,3.47.86,7.1,7.1,0,0,1,2.5,2.64V77Zm-5.53,8.9a4.71,4.71,0,0,0-1.11-3.3,4.39,4.39,0,0,0-6.06,0,4.72,4.72,0,0,0-1.11,3.31,4.62,4.62,0,0,0,1.12,3.29,4.41,4.41,0,0,0,6.05,0A4.66,4.66,0,0,0,286.49,85.94Z" transform="translate(-107.98 -62.9)"/></svg>